<svg xmlns="http://www.w3.org/2000/svg" viewBox="0 0 188 56" width="188" height="56">
	<style>
		tspan { white-space:pre }
		.shp0 { fill: #ffffff } 
	</style>
	<g id="Group_376">
		<path id="Path_320" fill-rule="evenodd" class="shp0" d="M4.58 22.91C5.01 23.39 4.89 23.32 5.51 23.4C22.72 25.64 35.92 34.97 45.18 51.25C46.15 52.95 46.23 52.84 45.57 51C40.25 36.12 23.76 23.65 8.41 17.74C2.61 15.51 -0.62 17.04 4.58 22.91" />
		<path id="Path_321" fill-rule="evenodd" class="shp0" d="M169.24 21.73L162.1 21.73C161.97 21.96 161.86 22.21 161.79 22.47C161.72 22.73 161.68 23 161.68 23.27C161.68 23.54 161.72 23.81 161.79 24.07C161.86 24.33 161.97 24.58 162.1 24.81L170.03 24.81C170.12 25.24 170.21 25.66 170.29 26.09C170.37 26.52 170.44 26.94 170.51 27.37C170.57 27.8 170.63 28.23 170.69 28.66C170.74 29.09 170.79 29.52 170.82 29.96L175.18 30.12C174.8 22.03 170.39 12.52 166.79 9.39C166.71 9.31 166.64 9.24 166.55 9.18C166.47 9.11 166.38 9.06 166.28 9.01C166.19 8.97 166.09 8.93 165.99 8.9C165.89 8.88 165.78 8.86 165.68 8.85L163.12 8.94C163.01 8.95 162.9 8.97 162.8 9C162.7 9.03 162.59 9.07 162.5 9.12C162.4 9.17 162.31 9.23 162.23 9.3C162.14 9.37 162.06 9.44 161.99 9.53C157.22 14.62 154.47 23.23 153.42 30.12L157.67 30.18C159.39 22.57 161.31 15.6 164.35 12.45C166.38 14.19 168.07 17.78 169.24 21.73" />
		<path id="Path_322" fill-rule="evenodd" class="shp0" d="M135.24 13.69C136.13 14.28 137.01 14.89 137.88 15.52C138.75 16.15 139.6 16.8 140.43 17.47C141.27 18.14 142.09 18.82 142.89 19.53C143.7 20.24 144.49 20.96 145.26 21.7C145.54 21.92 145.79 22.16 146.03 22.43C146.27 22.69 146.48 22.97 146.67 23.27C146.86 23.57 147.02 23.89 147.15 24.21C147.29 24.54 147.4 24.88 147.47 25.22L147.47 30.01L151.3 30.01L151.3 8.94L147.47 8.94L147.47 18.39C144.48 15.79 141.49 13.19 138.29 10.74C138.06 10.56 137.82 10.39 137.57 10.22C137.33 10.06 137.08 9.91 136.82 9.76C136.57 9.62 136.31 9.48 136.04 9.35C135.78 9.22 135.51 9.1 135.24 8.99L131.48 8.99L131.48 30.01L135.24 30.01L135.24 13.69Z" />
		<path id="Path_323" fill-rule="evenodd" class="shp0" d="M129.16 15.83L120.55 15.83C120.42 16.06 120.31 16.31 120.24 16.57C120.17 16.83 120.13 17.1 120.13 17.37C120.13 17.64 120.17 17.91 120.24 18.17C120.31 18.43 120.42 18.68 120.55 18.92L129.16 18.92L129.16 15.83Z" />
		<path id="Path_324" fill-rule="evenodd" class="shp0" d="M117.13 30.01L128.71 30.01L128.71 26.94L117.13 26.94L117.13 11.82L128.35 11.82L128.35 8.84L112.99 8.84L112.99 30.01L117.14 30.01L117.13 30.01Z" />
		<path id="Path_325" fill-rule="evenodd" class="shp0" d="M90.38 8.98L90.38 30.01L94.58 30.01L94.58 11.85C95.11 11.81 95.64 11.78 96.17 11.76C96.7 11.75 97.23 11.74 97.76 11.75C98.29 11.76 98.82 11.78 99.35 11.81C99.88 11.84 100.4 11.88 100.93 11.94C108.44 12.92 109.1 19.76 102.2 20.82C101.75 20.9 101.29 20.95 100.83 20.95C100.37 20.96 99.91 20.93 99.46 20.85C99 20.78 98.56 20.67 98.12 20.52C97.69 20.38 97.26 20.19 96.86 19.97L96.86 22.9C101.57 27.55 106.2 29.88 110.74 30.23L110.74 26.92C110.08 26.75 109.41 26.56 108.75 26.36C108.1 26.16 107.44 25.94 106.8 25.7C106.15 25.46 105.51 25.21 104.88 24.94C104.24 24.67 103.62 24.38 103 24.07C103.41 24 103.82 23.9 104.23 23.78C104.63 23.66 105.03 23.52 105.43 23.37C105.82 23.21 106.2 23.04 106.58 22.85C106.95 22.66 107.32 22.45 107.68 22.22C108.53 21.63 109.23 20.86 109.74 19.96C110.25 19.06 110.55 18.06 110.62 17.02C110.69 15.99 110.52 14.96 110.13 14C109.75 13.04 109.15 12.18 108.38 11.49C105.99 9.24 102.68 8.98 99.64 8.98L90.38 8.98" />
		<path id="Path_326" fill-rule="evenodd" class="shp0" d="M72.42 11.85C72.95 11.81 73.47 11.78 74 11.76C74.53 11.74 75.06 11.74 75.59 11.75C76.12 11.75 76.65 11.77 77.18 11.81C77.71 11.84 78.24 11.88 78.77 11.94C86.27 12.92 86.93 19.76 80.03 20.82C79.58 20.9 79.12 20.94 78.66 20.95C78.2 20.96 77.75 20.92 77.29 20.85C76.84 20.78 76.39 20.67 75.96 20.52C75.52 20.37 75.1 20.19 74.7 19.97L74.7 22.9C79.41 27.54 84.03 29.88 88.58 30.23L88.58 26.92C87.91 26.75 87.25 26.56 86.59 26.36C85.93 26.15 85.28 25.93 84.63 25.7C83.99 25.46 83.35 25.2 82.71 24.93C82.08 24.66 81.45 24.38 80.83 24.07C81.25 23.99 81.66 23.89 82.07 23.78C82.47 23.66 82.87 23.52 83.26 23.37C83.65 23.21 84.04 23.04 84.42 22.84C84.79 22.65 85.16 22.44 85.51 22.22C86.36 21.63 87.07 20.85 87.58 19.96C88.09 19.06 88.39 18.05 88.46 17.02C88.52 15.99 88.36 14.96 87.97 14C87.58 13.04 86.99 12.18 86.22 11.48C83.83 9.24 80.52 8.98 77.48 8.98L68.21 8.98L68.21 30.01L72.41 30.01L72.42 11.85Z" />
		<path id="Path_327" fill-rule="evenodd" class="shp0" d="M66.15 15.83L57.54 15.83C57.41 16.06 57.3 16.31 57.23 16.57C57.16 16.83 57.12 17.1 57.12 17.37C57.12 17.64 57.16 17.91 57.23 18.17C57.3 18.43 57.41 18.68 57.54 18.92L66.15 18.92L66.15 15.83Z" />
		<path id="Path_328" fill-rule="evenodd" class="shp0" d="M54.13 30.01L65.71 30.01L65.71 26.94L54.13 26.94L54.13 11.82L65.34 11.82L65.34 8.84L49.98 8.84L49.98 30.01L54.13 30.01L54.13 30.01Z" />
		<path id="Path_329" fill-rule="evenodd" class="shp0" d="M41.54 12.03L41.54 30.04L37.37 30.04L37.37 12.03L31.38 12.03L31.38 8.94L47.6 8.94L47.6 12.03L41.54 12.03Z" />
		<path id="Path_330" fill-rule="evenodd" class="shp0" d="M32.35 39.72C26.3 32.08 11 24.75 0.98 26.37C-0.5 26.61 -0.16 26.67 1.05 26.69C12.55 26.88 23.82 33.78 28.7 42.07C28.82 42.27 28.77 42.26 29 42.3C31.02 42.67 34.76 42.76 32.35 39.72" />
		<path id="Path_331" fill-rule="evenodd" class="shp0" d="M19.08 6.24C15.41 1.6 11.63 4.49 13.06 8.97C13.57 10.57 15.63 14.1 17.59 14.64C18.73 14.95 19.37 14.24 19.76 13.22C19.85 12.98 19.92 12.73 19.97 12.49C20.03 12.24 20.08 12 20.11 11.75C20.15 11.5 20.17 11.25 20.18 10.99C20.19 10.74 20.19 10.49 20.18 10.24C20.16 9.32 20.16 9.18 20.66 10.13C20.85 10.46 21.02 10.81 21.15 11.17C21.28 11.53 21.38 11.9 21.44 12.28C21.5 12.66 21.54 13.04 21.53 13.43C21.53 13.81 21.49 14.2 21.42 14.57C21.34 14.95 21.2 15.32 21.01 15.65C20.81 15.99 20.57 16.29 20.28 16.55C20 16.81 19.67 17.02 19.32 17.18C18.97 17.34 18.59 17.45 18.21 17.49C14.37 17.99 10.44 13.8 9.45 10.08C7.06 1.2 19.29 -1.7 19.68 5.95C19.73 6.95 19.55 6.84 19.08 6.24" />
		<path id="Path_335" fill-rule="evenodd" class="shp0" d="M182.23 16.94C183.43 16.94 184.52 17.67 184.98 18.78C185.44 19.89 185.19 21.17 184.33 22.02C183.48 22.87 182.21 23.12 181.09 22.66C179.98 22.2 179.26 21.12 179.26 19.92C179.26 19.53 179.33 19.14 179.48 18.78C179.63 18.42 179.85 18.09 180.13 17.81C180.4 17.54 180.73 17.32 181.09 17.17C181.45 17.02 181.84 16.94 182.23 16.94" />
	</g>
</svg>