<svg xmlns="http://www.w3.org/2000/svg" viewBox="0 0 177 52" width="177" height="52">
	<style>
		tspan { white-space:pre }
		.shp0 { fill: #ffffff } 
	</style>
	<g id="Group_376">
		<path id="Path_320" fill-rule="evenodd" class="shp0" d="M4.58 22.91C5.01 23.39 4.89 23.32 5.51 23.4C22.72 25.64 35.92 34.97 45.18 51.25C46.15 52.95 46.23 52.84 45.57 51C40.25 36.12 23.76 23.65 8.41 17.74C2.61 15.51 -0.62 17.04 4.58 22.91" />
		<path id="Path_321" fill-rule="evenodd" class="shp0" d="M169.24 21.73L162.1 21.73C161.97 21.96 161.86 22.21 161.79 22.47C161.72 22.73 161.68 23 161.68 23.27C161.68 23.54 161.72 23.81 161.79 24.07C161.86 24.33 161.97 24.58 162.1 24.81L170.03 24.81C170.12 25.24 170.21 25.66 170.29 26.09C170.37 26.52 170.44 26.94 170.51 27.37C170.57 27.8 170.63 28.23 170.69 28.66C170.74 29.09 170.79 29.52 170.82 29.96L175.18 30.12C174.8 22.03 170.39 12.52 166.79 9.39C166.71 9.31 166.64 9.24 166.55 9.18C166.47 9.11 166.38 9.06 166.28 9.01C166.19 8.97 166.09 8.93 165.99 8.9C165.89 8.88 165.78 8.86 165.68 8.85L163.12 8.94C163.01 8.95 162.9 8.97 162.8 9C162.7 9.03 162.59 9.07 162.5 9.12C162.4 9.17 162.31 9.23 162.23 9.3C162.14 9.37 162.06 9.44 161.99 9.53C157.22 14.62 154.47 23.23 153.42 30.12L157.67 30.18C159.39 22.57 161.31 15.6 164.35 12.45C166.38 14.19 168.07 17.78 169.24 21.73" />
		<path id="Path_322" fill-rule="evenodd" class="shp0" d="M135.24 13.69C136.13 14.28 137.01 14.89 137.88 15.52C138.75 16.15 139.6 16.8 140.43 17.47C141.27 18.14 142.09 18.82 142.89 19.53C143.7 20.24 144.49 20.96 145.26 21.7C145.54 21.92 145.79 22.16 146.03 22.43C146.27 22.69 146.48 22.97 146.67 23.27C146.86 23.57 147.02 23.89 147.15 24.21C147.29 24.54 147.4 24.88 147.47 25.22L147.47 30.01L151.3 30.01L151.3 8.94L147.47 8.94L147.47 18.39C144.48 15.79 141.49 13.19 138.29 10.74C138.06 10.56 137.82 10.39 137.57 10.22C137.33 10.06 137.08 9.91 136.82 9.76C136.57 9.62 136.31 9.48 136.04 9.35C135.78 9.22 135.51 9.1 135.24 8.99L131.48 8.99L131.48 30.01L135.24 30.01L135.24 13.69Z" />
		<path id="Path_323" fill-rule="evenodd" class="shp0" d="M129.16 15.83L120.55 15.83C120.42 16.06 120.31 16.31 120.24 16.57C120.17 16.83 120.13 17.1 120.13 17.37C120.13 17.64 120.17 17.91 120.24 18.17C120.31 18.43 120.42 18.68 120.55 18.92L129.16 18.92L129.16 15.83Z" />
		<path id="Path_324" fill-rule="evenodd" class="shp0" d="M117.13 30.01L128.71 30.01L128.71 26.94L117.13 26.94L117.13 11.82L128.35 11.82L128.35 8.84L112.99 8.84L112.99 30.01L117.14 30.01L117.13 30.01Z" />
		<path id="Path_325" fill-rule="evenodd" class="shp0" d="M90.38 8.98L90.38 30.01L94.58 30.01L94.58 11.85C95.11 11.81 95.64 11.78 96.17 11.76C96.7 11.75 97.23 11.74 97.76 11.75C98.29 11.76 98.82 11.78 99.35 11.81C99.88 11.84 100.4 11.88 100.93 11.94C108.44 12.92 109.1 19.76 102.2 20.82C101.75 20.9 101.29 20.95 100.83 20.95C100.37 20.96 99.91 20.93 99.46 20.85C99 20.78 98.56 20.67 98.12 20.52C97.69 20.38 97.26 20.19 96.86 19.97L96.86 22.9C101.57 27.55 106.2 29.88 110.74 30.23L110.74 26.92C110.08 26.75 109.41 26.56 108.75 26.36C108.1 26.16 107.44 25.94 106.8 25.7C106.15 25.46 105.51 25.21 104.88 24.94C104.24 24.67 103.62 24.38 103 24.07C103.41 24 103.82 23.9 104.23 23.78C104.63 23.66 105.03 23.52 105.43 23.37C105.82 23.21 106.2 23.04 106.58 22.85C106.95 22.66 107.32 22.45 107.68 22.22C108.53 21.63 109.23 20.86 109.74 19.96C110.25 19.06 110.55 18.06 110.62 17.02C110.69 15.99 110.52 14.96 110.13 14C109.75 13.04 109.15 12.18 108.38 11.49C105.99 9.24 102.68 8.98 99.64 8.98L90.38 8.98" />
		<path id="Path_326" fill-rule="evenodd" class="shp0" d="M72.42 11.85C72.95 11.81 73.47 11.78 74 11.76C74.53 11.74 75.06 11.74 75.59 11.75C76.12 11.75 76.65 11.77 77.18 11.81C77.71 11.84 78.24 11.88 78.77 11.94C86.27 12.92 86.93 19.76 80.03 20.82C79.58 20.9 79.12 20.94 78.66 20.95C78.2 20.96 77.75 20.92 77.29 20.85C76.84 20.78 76.39 20.67 75.96 20.52C75.52 20.37 75.1 20.19 74.7 19.97L74.7 22.9C79.41 27.54 84.03 29.88 88.58 30.23L88.58 26.92C87.91 26.75 87.25 26.56 86.59 26.36C85.93 26.15 85.28 25.93 84.63 25.7C83.99 25.46 83.35 25.2 82.71 24.93C82.08 24.66 81.45 24.38 80.83 24.07C81.25 23.99 81.66 23.89 82.07 23.78C82.47 23.66 82.87 23.52 83.26 23.37C83.65 23.21 84.04 23.04 84.42 22.84C84.79 22.65 85.16 22.44 85.51 22.22C86.36 21.63 87.07 20.85 87.58 19.96C88.09 19.06 88.39 18.05 88.46 17.02C88.52 15.99 88.36 14.96 87.97 14C87.58 13.04 86.99 12.18 86.22 11.48C83.83 9.24 80.52 8.98 77.48 8.98L68.21 8.98L68.21 30.01L72.41 30.01L72.42 11.85Z" />
		<path id="Path_327" fill-rule="evenodd" class="shp0" d="M66.15 15.83L57.54 15.83C57.41 16.06 57.3 16.31 57.23 16.57C57.16 16.83 57.12 17.1 57.12 17.37C57.12 17.64 57.16 17.91 57.23 18.17C57.3 18.43 57.41 18.68 57.54 18.92L66.15 18.92L66.15 15.83Z" />
		<path id="Path_328" fill-rule="evenodd" class="shp0" d="M54.13 30.01L65.71 30.01L65.71 26.94L54.13 26.94L54.13 11.82L65.34 11.82L65.34 8.84L49.98 8.84L49.98 30.01L54.13 30.01L54.13 30.01Z" />
		<path id="Path_329" fill-rule="evenodd" class="shp0" d="M41.54 12.03L41.54 30.04L37.37 30.04L37.37 12.03L31.38 12.03L31.38 8.94L47.6 8.94L47.6 12.03L41.54 12.03Z" />
		<path id="Path_330" fill-rule="evenodd" class="shp0" d="M32.35 39.72C26.3 32.08 11 24.75 0.98 26.37C-0.5 26.61 -0.16 26.67 1.05 26.69C12.55 26.88 23.82 33.78 28.7 42.07C28.82 42.27 28.77 42.26 29 42.3C31.02 42.67 34.76 42.76 32.35 39.72" />
		<path id="Path_331" fill-rule="evenodd" class="shp0" d="M19.08 6.24C15.41 1.6 11.63 4.49 13.06 8.97C13.57 10.57 15.63 14.1 17.59 14.64C18.73 14.95 19.37 14.24 19.76 13.22C19.85 12.98 19.92 12.73 19.97 12.49C20.03 12.24 20.08 12 20.11 11.75C20.15 11.5 20.17 11.25 20.18 10.99C20.19 10.74 20.19 10.49 20.18 10.24C20.16 9.32 20.16 9.18 20.66 10.13C20.85 10.46 21.02 10.81 21.15 11.17C21.28 11.53 21.38 11.9 21.44 12.28C21.5 12.66 21.54 13.04 21.53 13.43C21.53 13.81 21.49 14.2 21.42 14.57C21.34 14.95 21.2 15.32 21.01 15.65C20.81 15.99 20.57 16.29 20.28 16.55C20 16.81 19.67 17.02 19.32 17.18C18.97 17.34 18.59 17.45 18.21 17.49C14.37 17.99 10.44 13.8 9.45 10.08C7.06 1.2 19.29 -1.7 19.68 5.95C19.73 6.95 19.55 6.84 19.08 6.24" />
		<path id="Path_332" fill-rule="evenodd" class="shp0" d="M259.3 8.76C263.11 8.76 265.77 9.97 267.29 12.4C267.6 12.96 267.86 13.54 268.08 14.14C268.31 14.74 268.49 15.35 268.63 15.97C268.77 16.59 268.87 17.23 268.92 17.86C268.97 18.5 268.98 19.14 268.95 19.78C268.95 23.64 268.03 26.44 266.18 28.19C265.7 28.62 265.17 29 264.61 29.33C264.05 29.66 263.46 29.93 262.84 30.14C262.23 30.36 261.6 30.51 260.96 30.6C260.31 30.69 259.66 30.72 259.01 30.69C255.57 30.69 253.05 29.65 251.47 27.58C251.3 27.33 251.13 27.07 250.98 26.8C250.82 26.53 250.68 26.26 250.55 25.97C250.43 25.69 250.31 25.4 250.22 25.11C250.12 24.82 250.03 24.52 249.96 24.22C249.87 23.86 249.78 23.49 249.71 23.12C249.64 22.75 249.58 22.38 249.53 22.01C249.48 21.63 249.45 21.26 249.42 20.89C249.4 20.51 249.39 20.13 249.39 19.76C249.39 19.38 249.4 19.01 249.42 18.63C249.45 18.26 249.49 17.88 249.54 17.51C249.59 17.14 249.65 16.77 249.72 16.4C249.8 16.03 249.89 15.67 249.99 15.31C250.07 15 250.16 14.7 250.27 14.41C250.37 14.11 250.5 13.82 250.63 13.54C250.77 13.26 250.92 12.98 251.09 12.72C251.25 12.45 251.43 12.19 251.62 11.94C251.83 11.68 252.05 11.44 252.29 11.2C252.53 10.97 252.78 10.75 253.05 10.55C253.31 10.35 253.59 10.17 253.88 10C254.17 9.84 254.47 9.69 254.78 9.57C255.14 9.43 255.5 9.31 255.88 9.2C256.25 9.1 256.62 9.02 257 8.95C257.38 8.88 257.76 8.83 258.15 8.8C258.53 8.77 258.92 8.76 259.3 8.76L259.3 8.76ZM259.28 11.47C259.28 11.47 259.28 11.47 259.28 11.47C259.28 11.47 259.28 11.47 259.28 11.47M253.67 14.55C253.51 14.96 253.37 15.37 253.25 15.8C253.14 16.22 253.04 16.65 252.97 17.08C252.9 17.51 252.85 17.95 252.82 18.39C252.8 18.82 252.79 19.26 252.81 19.7C252.78 20.21 252.78 20.73 252.82 21.24C252.85 21.75 252.92 22.26 253.03 22.76C253.14 23.26 253.28 23.76 253.45 24.24C253.62 24.72 253.83 25.19 254.07 25.65C255.06 27.2 256.78 27.97 259.23 27.97C262.03 27.97 263.88 26.93 264.78 24.86C264.93 24.46 265.05 24.06 265.15 23.65C265.25 23.24 265.34 22.82 265.4 22.4C265.46 21.98 265.5 21.56 265.52 21.14C265.55 20.72 265.55 20.29 265.53 19.87C265.53 17.19 265.16 15.23 264.43 14C263.43 12.34 261.71 11.5 259.28 11.47C259.28 11.47 259.28 11.47 259.28 11.47C256.49 11.47 254.62 12.5 253.67 14.55ZM211.92 18.16L222.54 18.16L222.54 30.37L214.15 30.37C213.72 30.38 213.28 30.38 212.84 30.37C212.41 30.35 211.97 30.32 211.54 30.28C211.1 30.23 210.67 30.17 210.24 30.1C209.81 30.03 209.38 29.94 208.96 29.84C208.58 29.72 208.21 29.58 207.85 29.41C207.49 29.25 207.14 29.05 206.81 28.83C206.48 28.61 206.16 28.36 205.87 28.1C205.58 27.83 205.3 27.54 205.05 27.23C203.67 25.55 202.98 23.08 202.98 19.81C202.98 15.12 204.37 11.97 207.15 10.37C207.37 10.25 207.6 10.13 207.83 10.03C208.07 9.92 208.31 9.82 208.55 9.74C208.79 9.65 209.04 9.58 209.28 9.51C209.53 9.45 209.78 9.39 210.04 9.35C210.39 9.29 210.75 9.24 211.1 9.2C211.46 9.16 211.82 9.13 212.17 9.1C212.53 9.08 212.89 9.06 213.25 9.05C213.61 9.04 213.96 9.04 214.32 9.05L222.54 9.05L222.54 11.76L214.61 11.76C214.35 11.76 214.09 11.76 213.83 11.76C213.57 11.76 213.31 11.77 213.05 11.78C212.79 11.79 212.54 11.81 212.28 11.83C212.02 11.86 211.76 11.88 211.51 11.91C211.35 11.94 211.19 11.98 211.04 12.02C210.88 12.06 210.73 12.11 210.58 12.16C210.43 12.22 210.28 12.28 210.14 12.35C209.99 12.42 209.85 12.49 209.71 12.57C207.79 13.69 206.82 16.02 206.82 19.54C206.82 19.83 206.82 20.11 206.83 20.39C206.84 20.67 206.86 20.96 206.88 21.24C206.91 21.52 206.94 21.8 206.98 22.08C207.02 22.36 207.07 22.64 207.12 22.92C207.17 23.13 207.23 23.34 207.3 23.55C207.37 23.75 207.45 23.96 207.53 24.15C207.62 24.35 207.72 24.55 207.83 24.74C207.93 24.93 208.05 25.11 208.17 25.29C208.31 25.5 208.46 25.7 208.62 25.89C208.79 26.07 208.97 26.25 209.16 26.4C209.35 26.56 209.56 26.71 209.77 26.83C209.99 26.96 210.21 27.07 210.44 27.16C210.78 27.26 211.12 27.34 211.47 27.41C211.81 27.48 212.16 27.53 212.51 27.57C212.85 27.61 213.2 27.64 213.55 27.65C213.9 27.67 214.25 27.67 214.6 27.65L218.93 27.65L218.93 20.87L211.92 20.87L211.92 18.16ZM235.47 8.83C238.53 8.83 241.85 9.1 244.25 11.35C245.02 12.05 245.62 12.91 246.01 13.88C246.4 14.84 246.57 15.88 246.5 16.92C246.43 17.95 246.13 18.96 245.62 19.87C245.11 20.77 244.4 21.55 243.54 22.14C243.19 22.37 242.82 22.58 242.44 22.77C242.06 22.96 241.68 23.14 241.28 23.29C240.89 23.45 240.49 23.59 240.08 23.71C239.67 23.82 239.26 23.92 238.84 24C239.46 24.31 240.09 24.6 240.73 24.87C241.37 25.14 242.01 25.4 242.66 25.63C243.31 25.87 243.97 26.1 244.63 26.3C245.29 26.5 245.95 26.69 246.62 26.86L246.62 30.19C242.06 29.84 237.41 27.49 232.67 22.82L232.67 19.88C233.08 20.1 233.5 20.29 233.94 20.43C234.38 20.58 234.83 20.69 235.28 20.76C235.74 20.84 236.2 20.87 236.66 20.87C237.12 20.86 237.58 20.81 238.04 20.73C244.97 19.67 244.31 12.8 236.76 11.81C236.23 11.75 235.7 11.71 235.17 11.67C234.64 11.64 234.11 11.62 233.57 11.62C233.04 11.61 232.51 11.61 231.98 11.63C231.44 11.65 230.91 11.68 230.38 11.72L230.38 29.97L226.16 29.97L226.16 8.83L235.47 8.83ZM195.88 21.69C194.71 17.73 193 14.12 190.97 12.38C187.91 15.54 185.99 22.55 184.25 30.19L179.98 30.14C181.03 23.2 183.8 14.55 188.6 9.44C188.67 9.35 188.75 9.28 188.83 9.21C188.92 9.14 189.01 9.08 189.1 9.03C189.2 8.98 189.3 8.94 189.41 8.91C189.51 8.88 189.62 8.86 189.73 8.85L192.3 8.76C192.41 8.77 192.51 8.78 192.61 8.81C192.71 8.84 192.81 8.87 192.91 8.92C193 8.97 193.1 9.02 193.18 9.08C193.26 9.15 193.34 9.22 193.41 9.3C197.03 12.44 201.47 22 201.85 30.13L197.47 29.97C197.43 29.53 197.39 29.1 197.33 28.67C197.28 28.23 197.22 27.8 197.15 27.37C197.09 26.94 197.01 26.51 196.93 26.08C196.85 25.65 196.77 25.22 196.67 24.8L188.71 24.8C188.57 24.56 188.47 24.31 188.4 24.05C188.33 23.79 188.29 23.52 188.29 23.25C188.29 22.97 188.33 22.7 188.4 22.44C188.47 22.18 188.57 21.93 188.71 21.69L195.88 21.69L195.88 21.69Z" />
		<path id="Path_335" fill-rule="evenodd" class="shp0" d="M275.23 16.94C276.43 16.94 277.52 17.67 277.98 18.78C278.44 19.89 278.19 21.17 277.33 22.02C276.48 22.87 275.21 23.12 274.09 22.66C272.98 22.2 272.26 21.12 272.26 19.92C272.26 19.53 272.33 19.14 272.48 18.78C272.63 18.42 272.85 18.09 273.13 17.81C273.4 17.54 273.73 17.32 274.09 17.17C274.45 17.02 274.84 16.94 275.23 16.94" />
	</g>
</svg>